<svg width="65" height="65" viewBox="0 0 65 65" fill="none" xmlns="http://www.w3.org/2000/svg">
<path d="M49.9781 65H15.0223C6.72548 65 0 58.2743 0 49.9777V15.0191C0 6.72327 6.72548 0 15.0223 0H49.9781C58.2745 0 65 6.72327 65 15.0191V49.9777C65 58.2743 58.2745 65 49.9781 65Z" fill="#F79039"/>
<path d="M9.91622 25.8327C9.89438 25.7811 9.87731 25.7215 9.86698 25.6659C9.24431 22.1673 15.9202 21.2738 18.0669 21.9489C19.1685 22.2944 20.2753 22.898 21.1545 23.6445C21.494 23.9344 23.6757 26.6627 22.1068 26.6984C21.8744 26.7064 21.6632 26.5713 21.4738 26.4403C20.0414 25.4276 19.2781 23.9265 17.4713 23.4937C15.4889 23.0211 13.3159 23.6604 11.9316 25.1616C11.4936 25.6381 10.39 26.9844 9.91622 25.8327Z" fill="#2E2D2D"/>
<path d="M53.9953 25.8327C54.0175 25.7811 54.0342 25.7215 54.0441 25.6659C54.6676 22.1673 47.9913 21.2738 45.8449 21.9489C44.743 22.2944 43.6366 22.898 42.757 23.6445C42.4179 23.9344 40.2361 26.6627 41.8051 26.6984C42.0374 26.7064 42.2479 26.5713 42.4377 26.4403C43.8705 25.4276 44.6338 23.9265 46.4402 23.4937C48.4226 23.0211 50.5956 23.6604 51.9803 25.1616C52.4179 25.6381 53.5219 26.9844 53.9953 25.8327Z" fill="#2E2D2D"/>
<path d="M19.3316 38.035C27.3632 40.7986 36.6981 40.6306 44.7122 37.8635C47.6179 36.86 50.3968 35.4502 52.8343 33.5686C53.594 32.9809 54.9874 31.7498 55.8798 32.8975C56.3904 33.5527 55.9616 34.6472 55.6097 35.2774C54.7575 36.8048 53.2505 37.8821 51.8745 38.9007C50.0672 40.2378 48.0587 41.301 45.9833 42.1556C42.453 43.609 38.6574 44.3659 34.8571 44.6209C33.4255 44.717 31.9879 44.7428 30.5536 44.6987C30.5127 44.6975 30.4714 44.6959 30.4301 44.6947C28.3885 44.6288 26.3513 44.4172 24.3396 44.0645C20.5059 43.393 16.769 42.0785 13.3781 40.166C13.0084 39.9571 12.6411 39.7426 12.2781 39.521C11.0622 38.7784 9.89067 38.0326 9.19295 36.7357C8.93959 36.2655 8.79703 35.7059 8.94674 35.1932C9.20208 34.3216 10.142 34.0031 10.9609 34.1778C12.2511 34.4534 13.2943 35.1976 14.4233 35.8286C15.6158 36.495 16.8524 37.0828 18.1224 37.5871C18.5239 37.7463 18.9273 37.8956 19.3316 38.035Z" fill="#2E2D2D"/>
</svg>
