<svg width="65" height="65" viewBox="0 0 65 65" fill="none" xmlns="http://www.w3.org/2000/svg">
<path d="M49.9778 65H15.0219C6.72585 65 0 58.2745 0 49.9781V15.0219C0 6.72549 6.72585 0 15.0219 0H49.9778C58.2742 0 65 6.72549 65 15.0219V49.9781C65 58.2745 58.2742 65 49.9778 65Z" fill="#F57728"/>
<path d="M43.0708 45.4887C43.6018 45.6829 44.1371 45.2358 44.0573 44.6758C43.3925 40.0094 38.9191 36.4008 33.5001 36.4008C28.082 36.4008 23.6101 40.007 22.943 44.6715C22.8632 45.2326 23.4008 45.6801 23.9322 45.4836L29.039 43.5969C31.8851 42.5453 35.0119 42.5406 37.8608 43.583L43.0708 45.4887Z" fill="#2E2D2D"/>
<path d="M24.8732 27.6337C24.8732 29.659 23.8995 31.3007 22.6982 31.3007C21.4966 31.3007 20.5225 29.659 20.5225 27.6337C20.5225 25.6089 21.4966 23.9668 22.6982 23.9668C23.8995 23.9668 24.8732 25.6089 24.8732 27.6337Z" fill="#2E2D2D"/>
<path d="M46.6276 27.6337C46.6276 29.659 45.6535 31.3007 44.4522 31.3007C43.251 31.3007 42.2769 29.659 42.2769 27.6337C42.2769 25.6089 43.251 23.9668 44.4522 23.9668C45.6535 23.9668 46.6276 25.6089 46.6276 27.6337Z" fill="#2E2D2D"/>
<path d="M25.1654 24.9715C23.8573 23.9728 20.7666 22.135 15.7296 22.1262C15.4731 22.1258 15.2273 22.0063 15.0851 21.793C14.8242 21.4007 14.5943 20.7399 15.4779 20.2245C15.4779 20.2245 17.9415 18.7686 20.8535 19.8885C20.8535 19.8885 24.0689 21.496 25.3623 23.5578C25.4195 23.6492 25.4584 23.75 25.4834 23.8548L25.6685 24.6431C25.7372 24.9354 25.404 25.1542 25.1654 24.9715Z" fill="#2E2D2D"/>
<path d="M41.8342 24.9715C43.1427 23.9728 46.233 22.135 51.2704 22.1262C51.5265 22.1258 51.7727 22.0063 51.9145 21.793C52.1758 21.4007 52.4057 20.7399 51.5221 20.2245C51.5221 20.2245 49.0581 18.7686 46.1461 19.8885C46.1461 19.8885 42.9311 21.496 41.6373 23.5578C41.5805 23.6492 41.5416 23.75 41.5166 23.8548L41.3315 24.6431C41.2624 24.9354 41.596 25.1542 41.8342 24.9715Z" fill="#2E2D2D"/>
</svg>
