<svg width="65" height="65" viewBox="0 0 65 65" fill="none" xmlns="http://www.w3.org/2000/svg">
<path d="M49.9778 65H15.0218C6.72583 65 0 58.2746 0 49.9778V15.0222C0 6.72584 6.72583 0 15.0218 0H49.9778C58.2742 0 65 6.72584 65 15.0222V49.9778C65 58.2746 58.2742 65 49.9778 65Z" fill="#F4694C"/>
<path d="M25.3212 38.4433C25.3212 41.7544 23.7288 44.4389 21.7643 44.4389C19.7994 44.4389 18.207 41.7544 18.207 38.4433C18.207 35.1318 19.7994 32.447 21.7643 32.447C23.7288 32.447 25.3212 35.1318 25.3212 38.4433Z" fill="white"/>
<path d="M48.8348 38.4433C48.8348 41.7544 47.242 44.4389 45.2775 44.4389C43.3126 44.4389 41.7202 41.7544 41.7202 38.4433C41.7202 35.1318 43.3126 32.447 45.2775 32.447C47.242 32.447 48.8348 35.1318 48.8348 38.4433Z" fill="white"/>
<path d="M24.3755 38.4433C24.3755 40.8745 23.2064 42.8453 21.7641 42.8453C20.3214 42.8453 19.1523 40.8745 19.1523 38.4433C19.1523 36.0122 20.3214 34.0414 21.7641 34.0414C23.2064 34.0414 24.3755 36.0122 24.3755 38.4433Z" fill="#2E2D2D"/>
<path d="M47.9151 38.4433C47.9151 40.8745 46.746 42.8453 45.3033 42.8453C43.861 42.8453 42.6919 40.8745 42.6919 38.4433C42.6919 36.0122 43.861 34.0414 45.3033 34.0414C46.746 34.0414 47.9151 36.0122 47.9151 38.4433Z" fill="#2E2D2D"/>
<path d="M56.5766 25.2506C56.5766 28.1562 55.4131 28.9814 53.8119 28.9814C52.2112 28.9814 50.7788 28.1562 50.7788 25.2506C50.7788 22.3453 51.9693 16.3391 53.5701 16.3391C55.1716 16.3391 56.5766 22.3453 56.5766 25.2506Z" fill="white"/>
<path d="M38.2172 18.9938C38.2172 21.2533 37.3122 21.8954 36.0668 21.8954C34.8219 21.8954 33.708 21.2533 33.708 18.9938C33.708 16.7338 34.6341 12.0626 35.8794 12.0626C37.1243 12.0626 38.2172 16.7338 38.2172 18.9938Z" fill="white"/>
<path d="M17.115 25.3888C17.115 27.6436 16.2116 28.2845 14.969 28.2845C13.7268 28.2845 12.6157 27.6436 12.6157 25.3888C12.6157 23.134 13.5394 18.4731 14.782 18.4731C16.0245 18.4731 17.115 23.134 17.115 25.3888Z" fill="white"/>
<path d="M27.0412 22.1837C27.0412 23.734 26.4202 24.1744 25.566 24.1744C24.7118 24.1744 23.9478 23.734 23.9478 22.1837C23.9478 20.6338 24.5827 17.4295 25.4373 17.4295C26.2911 17.4295 27.0412 20.6338 27.0412 22.1837Z" fill="white"/>
<path d="M44.2728 25.0088C44.2728 26.5587 43.6521 26.9995 42.7983 26.9995C41.9437 26.9995 41.1797 26.5587 41.1797 25.0088C41.1797 23.4585 41.8151 20.2542 42.6688 20.2542C43.5234 20.2542 44.2728 23.4585 44.2728 25.0088Z" fill="white"/>
<path d="M6.0069 52.9378C5.86156 52.9378 5.71423 52.9048 5.57524 52.8353C5.09831 52.5967 4.90452 52.0161 5.14319 51.5392L7.72043 46.3855C7.95909 45.9082 8.53965 45.7148 9.01658 45.9535C9.49351 46.1921 9.68771 46.7723 9.44865 47.2496L6.8718 52.4033C6.70224 52.7416 6.36152 52.9378 6.0069 52.9378Z" fill="#2E2D2D"/>
<path d="M10.1942 52.9378C10.0489 52.9378 9.90155 52.9048 9.76296 52.8353C9.28563 52.5967 9.09224 52.0161 9.3305 51.5392L11.9069 46.3855C12.1456 45.9082 12.7278 45.7148 13.2035 45.9535C13.6808 46.1917 13.8746 46.7723 13.6356 47.2496L11.0591 52.4033C10.89 52.7416 10.5488 52.9378 10.1942 52.9378Z" fill="#2E2D2D"/>
<path d="M14.3812 52.9378C14.2363 52.9378 14.0886 52.9048 13.95 52.8353C13.4726 52.5967 13.2792 52.0161 13.5175 51.5392L16.094 46.3855C16.3334 45.9082 16.9148 45.7148 17.3905 45.9535C17.8679 46.1917 18.0616 46.7723 17.823 47.2496L15.2465 52.4033C15.0774 52.7416 14.7358 52.9378 14.3812 52.9378Z" fill="#2E2D2D"/>
<path d="M48.0408 52.9378C47.8951 52.9378 47.7478 52.9048 47.6092 52.8353C47.1319 52.5967 46.9381 52.0161 47.1771 51.5392L49.7536 46.3855C49.9934 45.9082 50.5732 45.7148 51.0505 45.9535C51.5275 46.1921 51.7209 46.7723 51.4826 47.2496L48.9053 52.4033C48.7362 52.7416 48.3951 52.9378 48.0408 52.9378Z" fill="#2E2D2D"/>
<path d="M52.2278 52.9378C52.082 52.9378 51.9347 52.9048 51.7961 52.8353C51.3192 52.5967 51.125 52.0161 51.3641 51.5392L53.9409 46.3855C54.18 45.9082 54.7601 45.7148 55.2375 45.9535C55.7148 46.1921 55.9082 46.7723 55.6695 47.2496L53.0923 52.4033C52.9231 52.7416 52.582 52.9378 52.2278 52.9378Z" fill="#2E2D2D"/>
<path d="M56.4152 52.9378C56.2694 52.9378 56.1221 52.9048 55.9835 52.8353C55.5062 52.5967 55.3128 52.0161 55.5515 51.5392L58.1283 46.3855C58.3677 45.9082 58.9471 45.7148 59.4249 45.9535C59.9022 46.1921 60.0956 46.7723 59.8569 47.2496L57.2801 52.4033C57.1109 52.7416 56.7694 52.9378 56.4152 52.9378Z" fill="#2E2D2D"/>
</svg>
