<svg width="65" height="65" viewBox="0 0 65 65" fill="none" xmlns="http://www.w3.org/2000/svg">
<path d="M50.5384 65H14.4616C6.4745 65 0 58.5251 0 50.5385V14.4615C0 6.47486 6.4745 0 14.4616 0H50.5384C58.5251 0 65 6.47486 65 14.4615V50.5385C65 58.5251 58.5251 65 50.5384 65Z" fill="#F4694C"/>
<path d="M24.4903 21.9268C24.7814 21.866 25.1372 21.8295 25.3246 22.0598C25.4171 22.1738 25.4422 22.3283 25.4497 22.4748C25.5037 23.5355 24.8175 24.5163 23.9598 25.1422C22.415 26.2684 20.3961 26.4618 18.4856 26.5285C16.3344 26.6035 14.051 26.5325 12.2334 25.3785C11.4904 24.9071 10.8221 24.1998 10.7117 23.3262C10.5703 22.204 11.525 21.2974 12.6083 21.6067C13.6229 21.8974 14.4505 22.5594 15.5172 22.8048C18.5316 23.4989 21.5501 22.5431 24.4903 21.9268Z" fill="#2E2D2D"/>
<path d="M40.5097 21.9268C40.219 21.866 39.8625 21.8295 39.6754 22.0598C39.5825 22.1738 39.5579 22.3283 39.5503 22.4748C39.4967 23.5355 40.1825 24.5163 41.0403 25.1422C42.5851 26.2684 44.604 26.4618 46.5141 26.5285C48.6656 26.6035 50.949 26.5325 52.7666 25.3785C53.5096 24.9071 54.1783 24.1998 54.2887 23.3262C54.4297 22.204 53.4754 21.2974 52.3917 21.6067C51.3771 21.8974 50.5499 22.5594 49.4833 22.8048C46.4688 23.4989 43.4503 22.5431 40.5097 21.9268Z" fill="#2E2D2D"/>
<path d="M23.6964 36.6794C31.5898 37.468 39.4359 37.5626 47.3611 36.2334C49.4074 35.8903 50.9764 37.478 49.4987 39.3392C48.7629 40.2661 47.5267 40.9975 46.4755 41.5237C43.2581 43.1316 39.6214 43.4207 36.0796 43.4402C32.2943 43.4604 28.478 43.5402 24.7305 42.9144C21.9988 42.4577 15.3864 40.9134 15.1776 37.283C15.0763 35.5174 18.3831 36.0563 19.3465 36.1802C20.7987 36.3669 22.2485 36.5348 23.6964 36.6794Z" fill="#2E2D2D"/>
</svg>
