<svg width="65" height="65" viewBox="0 0 65 65" fill="none" xmlns="http://www.w3.org/2000/svg">
<path d="M49.9781 65H15.0223C6.72548 65 0 58.2746 0 49.9778V15.0222C0 6.72584 6.72548 0 15.0223 0H49.9781C58.2745 0 65 6.72584 65 15.0222V49.9778C65 58.2746 58.2745 65 49.9781 65Z" fill="#F79039"/>
<path d="M47.5042 21.2168H40.5179C37.6031 21.2168 35.2359 23.5387 35.1513 26.4328H29.9189C29.8344 23.5387 27.4676 21.2168 24.5528 21.2168H17.5664C14.598 21.2168 12.1919 23.6229 12.1919 26.5912V30.4476C12.1919 33.416 14.598 35.8221 17.5664 35.8221H24.5528C27.5208 35.8221 29.9269 33.416 29.9269 30.4476V29.041H35.1434V30.4476C35.1434 33.416 37.5495 35.8221 40.5179 35.8221H47.5042C50.4723 35.8221 52.8784 33.416 52.8784 30.4476V26.5912C52.8784 23.6229 50.4723 21.2168 47.5042 21.2168Z" fill="#2E2D2D"/>
<path d="M13.5069 22.7138L12.8715 22.5121C12.42 22.3691 11.9339 22.5923 11.7489 23.0275L11.1139 24.5187C10.9106 24.9952 11.1421 25.5456 11.6249 25.7338L12.2734 25.9868C12.7416 26.1699 13.2706 25.9415 13.4588 25.4749L14.0811 23.9329C14.2808 23.4369 14.0168 22.8755 13.5069 22.7138Z" fill="#2E2D2D"/>
<path d="M51.7882 22.7138L52.424 22.5121C52.8752 22.3691 53.3612 22.5923 53.5463 23.0275L54.1816 24.5187C54.3846 24.9952 54.1534 25.5456 53.6706 25.7338L53.0221 25.9868C52.5531 26.1699 52.0245 25.9415 51.8367 25.4749L51.214 23.9329C51.0139 23.4369 51.2783 22.8755 51.7882 22.7138Z" fill="#2E2D2D"/>
<path d="M11.7489 23.0276L0 15.0223V18.0077L11.114 24.5187L11.7489 23.0276Z" fill="#2E2D2D"/>
<path d="M53.2837 23.0276L65.0001 15.0223L64.9993 18.0089L53.9191 24.5187L53.2837 23.0276Z" fill="#2E2D2D"/>
<path d="M25.7612 45.4781C26.7624 45.4893 27.7671 45.5401 28.7483 45.5556C32.25 45.612 35.7438 45.5341 39.207 44.9885C41.0806 44.6931 43.3251 44.4032 44.9794 43.4334C46.0366 42.8132 46.94 41.9983 47.9316 41.289C48.482 40.8951 49.6983 39.8841 50.4242 40.3908C50.6625 40.5564 50.6498 40.9082 50.5962 41.1933C50.1268 43.6709 48.4657 45.7915 46.6938 47.5022C45.0759 49.0632 43.2326 50.3797 41.062 51.042C38.5006 51.8236 35.745 52.1154 33.0764 52.1381C30.189 52.1623 26.9657 52.1226 24.3443 50.7633C23.7074 50.4325 23.1125 50.0207 22.5911 49.5263C22.1296 49.0887 21.775 48.4549 21.6293 47.8358C21.5006 47.2886 21.5681 46.6707 21.9212 46.2331C22.2972 45.7664 22.9251 45.579 23.5227 45.5318C24.2582 45.4738 25.0226 45.4702 25.7612 45.4781Z" fill="#2E2D2D"/>
</svg>
