<svg width="65" height="65" viewBox="0 0 65 65" fill="none" xmlns="http://www.w3.org/2000/svg">
<path d="M49.9778 65H15.0218C6.72583 65 0 58.2742 0 49.9778V15.0222C0 6.72584 6.72583 0 15.0218 0H49.9778C58.2742 0 65 6.72584 65 15.0222V49.9778C65 58.2742 58.2742 65 49.9778 65Z" fill="#FCD394"/>
<path d="M43.3274 45.1581C44.8265 45.1581 45.9471 43.7408 45.5588 42.2925C44.1093 36.8886 38.6522 32.8711 32.142 32.8711C25.6314 32.8711 20.1748 36.8886 18.7249 42.2925C18.3369 43.7408 19.4572 45.1581 20.9571 45.1581L29.4536 44.0227C31.1544 43.7952 32.8779 43.7928 34.5791 44.0152L43.3274 45.1581Z" fill="#2E2D2D"/>
<path d="M16.0664 23.4933C16.0664 21.4764 17.7009 19.8419 19.7174 19.8419C21.7343 19.8419 23.3688 21.4764 23.3688 23.4933C23.3688 25.5095 21.7343 27.1443 19.7174 27.1443C17.7009 27.1443 16.0664 25.5095 16.0664 23.4933Z" fill="#2E2D2D"/>
<path d="M41.6304 23.4933C41.6304 21.4764 43.2653 19.8419 45.2814 19.8419C47.2983 19.8419 48.9328 21.4764 48.9328 23.4933C48.9328 25.5095 47.2983 27.1443 45.2814 27.1443C43.2653 27.1443 41.6304 25.5095 41.6304 23.4933Z" fill="#2E2D2D"/>
</svg>
