<svg width="65" height="65" viewBox="0 0 65 65" fill="none" xmlns="http://www.w3.org/2000/svg">
<path d="M50.5384 65H14.4616C6.4745 65 0 58.5233 0 50.5375V14.4614C0 6.47479 6.4745 0 14.4616 0H50.5384C58.5255 0 65 6.47479 65 14.4614V50.5375C65 58.5233 58.5255 65 50.5384 65Z" fill="#FBBE2C"/>
<path d="M43.9053 34.8797C45.2932 34.8797 46.3046 36.1862 45.9718 37.5323C44.6105 43.0441 39.0962 47.1661 32.5006 47.1661C25.9046 47.1661 20.3899 43.0441 19.0286 37.5323C18.6958 36.1862 19.7073 34.8797 21.0952 34.8797H43.9053Z" fill="#2E2D2D"/>
<path d="M22.0784 22.9638C22.7884 24.1694 23.1311 25.9059 22.0748 26.8229C21.2083 27.575 19.9054 27.3502 18.7657 27.2204C15.8922 26.8935 12.9214 27.4856 10.393 28.889C10.2294 28.9803 10.063 29.076 9.87833 29.109C9.50306 29.1765 9.11111 28.9553 8.92169 28.6245C8.57183 28.0169 8.89072 27.2013 9.44191 26.7684C9.9931 26.3352 10.7099 26.1895 11.3985 26.0564C14.299 25.4961 17.3107 24.937 20.1774 25.6494C20.316 25.6836 20.4614 25.7209 20.5988 25.6832C21.0574 25.5573 20.9363 24.8635 20.6639 24.4732C19.7092 23.1091 18.1609 22.27 16.5784 21.753C15.2794 21.3289 11.6371 21.2487 10.8322 20.1034C9.7727 18.5964 12.8547 17.7748 13.9221 17.8344C16.9239 18.0016 20.5872 20.4322 22.0784 22.9638Z" fill="#2E2D2D"/>
<path d="M42.922 22.9638C42.2119 24.1694 41.8692 25.9059 42.9255 26.8229C43.7916 27.575 45.095 27.3502 46.2343 27.2204C49.1078 26.8935 52.0786 27.4856 54.607 28.889C54.7714 28.9803 54.9374 29.076 55.1216 29.109C55.4969 29.1765 55.8888 28.9553 56.0791 28.6245C56.4281 28.0169 56.1096 27.2013 55.5584 26.7684C55.0073 26.3352 54.2905 26.1895 53.6019 26.0564C50.7014 25.4961 47.6897 24.937 44.8225 25.6494C44.6839 25.6836 44.539 25.7209 44.4016 25.6832C43.9425 25.5573 44.0637 24.8635 44.3365 24.4732C45.2907 23.1091 46.8391 22.27 48.422 21.753C49.7205 21.3289 53.3628 21.2487 54.1678 20.1034C55.2273 18.5964 52.1457 17.7748 51.0782 17.8344C48.0761 18.0016 44.4131 20.4322 42.922 22.9638Z" fill="#2E2D2D"/>
</svg>
