<svg width="65" height="65" viewBox="0 0 65 65" fill="none" xmlns="http://www.w3.org/2000/svg">
<path d="M49.988 65H15.0151C6.72241 65 0 58.2742 0 49.9778V15.0222C0 6.72584 6.72241 0 15.0151 0H49.9642C58.2522 0 64.9762 6.71988 64.9801 15.0131L65 49.9682C65.0079 58.2686 58.2839 65 49.988 65Z" fill="#FCD394"/>
<path d="M45.6378 46.8859C44.4113 46.8859 43.0101 46.3172 41.4422 45.1815C40.1006 44.2093 39.017 43.8452 38.5407 44.2062C38.3859 44.3225 38.2152 44.5675 38.0366 44.8269C37.7786 45.1934 37.4888 45.6091 37.0561 45.9757C35.4605 47.3294 33.2575 46.9593 31.7293 46.1615C31.1414 45.8546 30.6195 45.4968 30.1146 45.1505C29.5394 44.7566 28.9968 44.3845 28.4407 44.1498C27.1003 43.5839 25.4288 43.8055 24.2829 44.7029C24.1269 44.8245 23.9657 44.9682 23.7946 45.1207C23.31 45.5528 22.7602 46.0428 22.0033 46.3434C19.763 47.2329 17.8788 45.874 16.3645 44.782C15.517 44.1704 14.7164 43.593 13.9464 43.3901C12.7917 43.0875 11.3592 43.8738 10.9972 45.0115C10.7586 45.7636 9.95678 46.1798 9.2034 45.9407C8.45201 45.7017 8.03604 44.8983 8.27499 44.1462C9.1022 41.542 12.0339 39.9301 14.6739 40.6266C15.9568 40.965 17.0607 41.7612 18.0348 42.4636C19.482 43.5076 20.2409 43.9691 20.9482 43.6875C21.2372 43.5728 21.5567 43.288 21.8949 42.9866C22.0918 42.8107 22.2958 42.6292 22.5233 42.4513C24.4909 40.9121 27.25 40.5448 29.5514 41.5166C30.373 41.8636 31.0625 42.3362 31.7293 42.7933C32.1858 43.1054 32.6145 43.4004 33.0511 43.6284C33.7775 44.0068 34.75 44.1851 35.2104 43.7944C35.3612 43.6689 35.52 43.437 35.6947 43.1915C35.9646 42.8024 36.302 42.3179 36.814 41.9299C37.9294 41.0817 39.9299 40.5563 43.1173 42.8671C44.4986 43.8666 45.5703 44.2423 46.0625 43.8952C46.2094 43.79 46.3841 43.5704 46.5667 43.3373C46.7016 43.1689 46.8326 43.0013 46.9755 42.8425C48.2576 41.4133 50.3494 40.8121 52.4412 41.2747C54.5291 41.7369 56.1724 43.1653 56.7321 45.002C56.9623 45.7569 56.5376 46.5555 55.7834 46.7854C55.0252 47.0165 54.2314 46.5892 54.0012 45.8347C53.6916 44.8165 52.6714 44.253 51.822 44.0648C50.9726 43.8762 49.8135 43.9584 49.103 44.7506C48.9998 44.865 48.9046 44.9869 48.8093 45.108C48.5354 45.4547 48.194 45.8863 47.7058 46.2306C47.0866 46.6679 46.396 46.8859 45.6378 46.8859Z" fill="#2E2D2D"/>
<path d="M13.6037 23.9115C13.7319 24.143 13.9895 24.34 14.3975 24.4464C17.7865 25.3284 24.453 24.203 24.9976 19.9249C25.0869 19.2244 24.7261 17.5165 23.7199 18.3282C22.6609 19.1831 21.9365 20.3709 20.8433 21.2072C19.7708 22.028 18.5161 22.4823 17.1578 22.4343C16.2754 22.4029 15.318 22.2075 14.4535 22.476C13.6767 22.7174 13.3211 23.3992 13.6037 23.9115Z" fill="#2E2D2D"/>
<path d="M50.6551 23.9115C50.5241 24.143 50.2661 24.34 49.8612 24.4464C46.4714 25.3284 39.803 24.203 39.2592 19.9249C39.1718 19.2244 39.533 17.5165 40.5373 18.3282C41.5971 19.1831 42.3195 20.3709 43.415 21.2072C44.4868 22.028 45.7411 22.4823 47.0986 22.4343C47.9837 22.4029 48.9404 22.2075 49.8017 22.476C50.5797 22.7174 50.9369 23.3992 50.6551 23.9115Z" fill="#2E2D2D"/>
<path d="M24.7115 29.6867C25.1001 29.8292 25.472 30.0028 25.8011 30.2498C27.4936 31.5193 25.6554 33.0379 24.4682 33.7848C23.1809 34.5957 21.0923 36.0369 19.4871 35.7239C19.235 35.6747 18.9715 35.5679 18.8436 35.3451C18.2375 34.2892 19.9301 33.7888 20.6144 33.493C21.1228 33.2734 22.1203 32.7786 22.06 32.0932C22.0421 31.891 21.9183 31.7127 21.773 31.5714C20.7684 30.5905 18.6115 30.8784 18.2157 29.2463C18.1625 29.0275 18.1955 28.7785 18.3439 28.6085C18.4884 28.4425 18.7155 28.3766 18.9326 28.3397C20.2734 28.1129 21.5936 28.5748 22.8213 29.0684C23.4215 29.3098 24.0875 29.4579 24.7115 29.6867Z" fill="#2E2D2D"/>
<path d="M39.5449 29.6867C39.1559 29.8292 38.7867 30.0028 38.4573 30.2498C36.7624 31.5193 38.6002 33.0379 39.787 33.7848C41.077 34.5957 43.1649 36.0369 44.7685 35.7239C45.0225 35.6747 45.2845 35.5679 45.4155 35.3451C46.0189 34.2892 44.3279 33.7888 43.6412 33.493C43.1332 33.2734 42.1368 32.7786 42.1964 32.0932C42.2162 31.891 42.3393 31.7127 42.4861 31.5714C43.4904 30.5905 45.6457 30.8784 46.0427 29.2463C46.0943 29.0275 46.0625 28.7785 45.9117 28.6085C45.7688 28.4425 45.5425 28.3766 45.3242 28.3397C43.9826 28.1129 42.6648 28.5748 41.4343 29.0684C40.8349 29.3098 40.1681 29.4579 39.5449 29.6867Z" fill="#2E2D2D"/>
</svg>
