<svg width="65" height="65" viewBox="0 0 65 65" fill="none" xmlns="http://www.w3.org/2000/svg">
<path d="M50.5385 65H14.4615C6.47486 65 0 58.5255 0 50.5384V14.4616C0 6.4745 6.47486 0 14.4615 0H50.5385C58.5251 0 65 6.4745 65 14.4616V50.5384C65 58.5255 58.5251 65 50.5385 65Z" fill="#FBBE2C"/>
<path d="M34.5498 38.7065V42.6017H39.0558V38.7065H34.5498Z" fill="white"/>
<path d="M19.7293 42.6017H20.3218V38.7065H15.0474C15.4576 40.9196 17.3991 42.6017 19.7293 42.6017Z" fill="white"/>
<path d="M40.7944 38.7065V42.6017H45.3V38.7065H40.7944Z" fill="white"/>
<path d="M20.3218 32.9865H19.7293C17.3693 32.9865 15.4099 34.7127 15.0347 36.9675H20.3218V32.9865Z" fill="white"/>
<path d="M28.3057 38.7065V42.6017H32.8109V38.7065H28.3057Z" fill="white"/>
<path d="M22.0601 38.7065V42.6017H26.5665V38.7065H22.0601Z" fill="white"/>
<path d="M32.8109 36.9675V32.9865H28.3057V36.9675H32.8109Z" fill="white"/>
<path d="M26.5665 36.9675V32.9865H22.0601V36.9675H26.5665Z" fill="white"/>
<path d="M51.1907 36.9675C50.8445 34.8878 49.1516 33.2609 47.0386 33.0194V36.9675H51.1907Z" fill="white"/>
<path d="M47.0386 42.5684C49.1226 42.3309 50.7996 40.7452 51.1776 38.7065H47.0386V42.5684Z" fill="white"/>
<path d="M45.3 36.9675V32.9865H40.7944V36.9675H45.3Z" fill="white"/>
<path d="M39.0558 36.9675V32.9865H34.5498V36.9675H39.0558Z" fill="white"/>
<path d="M46.4961 31.2475H19.729C16.1427 31.2475 13.2251 34.1651 13.2251 37.751V37.8368C13.2251 37.3567 13.6143 36.9675 14.0944 36.9675H14.1555C14.5379 34.2279 16.8841 32.1172 19.729 32.1172H20.4116C20.5526 31.8273 20.8468 31.6264 21.1907 31.6264C21.5346 31.6264 21.8289 31.8273 21.9698 32.1172H26.6561C26.7975 31.8273 27.0918 31.6264 27.4356 31.6264C27.7791 31.6264 28.0734 31.8273 28.2148 32.1172H32.9011C33.042 31.8273 33.3359 31.6264 33.6802 31.6264C34.0241 31.6264 34.3179 31.8273 34.4593 32.1172H39.1456C39.287 31.8273 39.5808 31.6264 39.9247 31.6264C40.2686 31.6264 40.5633 31.8273 40.7039 32.1172H45.3901C45.5311 31.8273 45.8258 31.6264 46.1693 31.6264C46.5227 31.6264 46.8253 31.838 46.9611 32.141C49.605 32.3571 51.7276 34.397 52.0747 37.0017C52.4436 37.1025 52.7156 37.4361 52.7156 37.8368C52.7156 38.2427 52.4368 38.5802 52.0612 38.6767C51.6807 41.215 49.613 43.2002 47.0322 43.444C46.9968 43.892 46.6263 44.2458 46.1693 44.2458C45.7217 44.2458 45.3576 43.9059 45.3095 43.4714H40.7845C40.7368 43.9059 40.3727 44.2458 39.9247 44.2458C39.4772 44.2458 39.1126 43.9059 39.065 43.4714H34.5399C34.4923 43.9059 34.1281 44.2458 33.6802 44.2458C33.2322 44.2458 32.8681 43.9059 32.8204 43.4714H28.2954C28.2477 43.9059 27.8832 44.2458 27.4356 44.2458C26.9877 44.2458 26.6236 43.9059 26.5759 43.4714H22.0508C22.0024 43.9059 21.6382 44.2458 21.1907 44.2458C20.7432 44.2458 20.379 43.9059 20.3306 43.4714H19.729C16.9135 43.4714 14.5876 41.4045 14.1686 38.7065H14.0944C13.6143 38.7065 13.2251 38.3169 13.2251 37.8368C13.2251 41.4231 16.1427 44.3407 19.729 44.3407H46.4961C50.082 44.3407 52.9995 41.4231 52.9995 37.8368V37.751C52.9995 34.1651 50.082 31.2475 46.4961 31.2475Z" fill="#2E2D2D"/>
<path d="M45.3002 42.6017H40.7946V43.3761C40.7946 43.4091 40.7882 43.4396 40.7847 43.4714H45.3097C45.3062 43.4396 45.3002 43.4091 45.3002 43.3761V42.6017Z" fill="#2E2D2D"/>
<path d="M39.0556 42.6017H34.5496V43.3761C34.5496 43.4091 34.5432 43.4396 34.54 43.4714H39.0651C39.0615 43.4396 39.0556 43.4091 39.0556 43.3761V42.6017Z" fill="#2E2D2D"/>
<path d="M20.3218 42.6017H19.7293C17.399 42.6017 15.4575 40.9196 15.0473 38.7065H14.1689C14.5879 41.4045 16.9138 43.4714 19.7293 43.4714H20.3309C20.3281 43.4396 20.3218 43.4091 20.3218 43.3761V42.6017Z" fill="#2E2D2D"/>
<path d="M26.5668 42.6017H22.0604V43.3761C22.0604 43.4091 22.0544 43.4396 22.0513 43.4714H26.5763C26.5728 43.4396 26.5668 43.4091 26.5668 43.3761V42.6017Z" fill="#2E2D2D"/>
<path d="M32.8105 42.6017H28.3053V43.3761C28.3053 43.4091 28.299 43.4396 28.2954 43.4714H32.8205C32.8169 43.4396 32.8105 43.4091 32.8105 43.3761V42.6017Z" fill="#2E2D2D"/>
<path d="M40.7946 32.9865H45.3002V32.4957C45.3002 32.3594 45.3344 32.232 45.3904 32.1172H40.7041C40.7605 32.232 40.7946 32.3594 40.7946 32.4957V32.9865Z" fill="#2E2D2D"/>
<path d="M22.0604 32.9865H26.5668V32.4957C26.5668 32.3594 26.6009 32.232 26.6565 32.1172H21.9702C22.0262 32.232 22.0604 32.3594 22.0604 32.4957V32.9865Z" fill="#2E2D2D"/>
<path d="M47.0389 33.0194C49.1519 33.2609 50.8448 34.8878 51.191 36.9675H51.8467C51.9265 36.9675 52.0015 36.9818 52.075 37.0016C51.7279 34.397 49.6054 32.357 46.9614 32.141C47.0107 32.2494 47.0389 32.369 47.0389 32.4956V33.0194Z" fill="#2E2D2D"/>
<path d="M34.5496 32.9865H39.0556V32.4957C39.0556 32.3594 39.0898 32.232 39.1457 32.1172H34.4595C34.5155 32.232 34.5496 32.3594 34.5496 32.4957V32.9865Z" fill="#2E2D2D"/>
<path d="M28.3054 32.9865H32.8106V32.4957C32.8106 32.3594 32.8447 32.232 32.9011 32.1172H28.2148C28.2712 32.232 28.3054 32.3594 28.3054 32.4957V32.9865Z" fill="#2E2D2D"/>
<path d="M19.7292 32.9865H20.3217V32.4956C20.3217 32.3594 20.3558 32.2319 20.4118 32.1172H19.7292C16.8843 32.1172 14.5382 34.2278 14.1558 36.9675H15.0346C15.4098 34.7127 17.3692 32.9865 19.7292 32.9865Z" fill="#2E2D2D"/>
<path d="M51.1777 38.7064C50.7996 40.7452 49.1226 42.3309 47.0386 42.5683V43.3761C47.0386 43.3995 47.0338 43.4213 47.0322 43.444C49.613 43.2001 51.6808 41.215 52.0612 38.6767C51.9921 38.6937 51.921 38.7064 51.8464 38.7064H51.1777Z" fill="#2E2D2D"/>
<path d="M20.3218 42.6017H22.0603V38.7065H26.5667V42.6017H28.3056V38.7065H32.8108V42.6017H34.5498V38.7065H39.0558V42.6017H40.7947V38.7065H45.3003V42.6017H46.4964C46.6803 42.6017 46.8606 42.589 47.0389 42.5684V38.7065H51.1779C51.2303 38.4241 51.2613 38.1342 51.2613 37.8368V37.751C51.2613 37.4841 51.2339 37.2228 51.191 36.9675H47.0389V33.0194C46.8606 32.9996 46.6803 32.9865 46.4964 32.9865H45.3003V36.9675H40.7947V32.9865H39.0558V36.9675H34.5498V32.9865H32.8108V36.9675H28.3056V32.9865H26.5667V36.9675H22.0603V32.9865H20.3218V36.9675H15.0346C14.9918 37.2228 14.9644 37.4841 14.9644 37.751V37.8368C14.9644 38.1342 14.9953 38.4241 15.0473 38.7065H20.3218V42.6017Z" fill="#2E2D2D"/>
<path d="M45.3096 43.4714C45.3576 43.9058 45.7218 44.2458 46.1693 44.2458C46.6264 44.2458 46.9969 43.8919 47.0322 43.444C46.8551 43.4607 46.6768 43.4714 46.4961 43.4714H45.3096Z" fill="#2E2D2D"/>
<path d="M27.4358 31.6264C27.0919 31.6264 26.7976 31.8273 26.6562 32.1172H28.2149C28.0735 31.8273 27.7793 31.6264 27.4358 31.6264Z" fill="#2E2D2D"/>
<path d="M21.1907 31.6264C20.8468 31.6264 20.5526 31.8273 20.4116 32.1172H21.9699C21.8289 31.8273 21.5346 31.6264 21.1907 31.6264Z" fill="#2E2D2D"/>
<path d="M33.6805 31.6264C33.3362 31.6264 33.0423 31.8273 32.9014 32.1172H34.4596C34.3183 31.8273 34.0244 31.6264 33.6805 31.6264Z" fill="#2E2D2D"/>
<path d="M14.0944 38.7065H14.1686C14.1246 38.4221 14.0944 38.133 14.0944 37.8368V37.7514C14.0944 37.4849 14.1198 37.2244 14.1555 36.9675H14.0944C13.6143 36.9675 13.2251 37.3567 13.2251 37.8368C13.2251 38.3169 13.6143 38.7065 14.0944 38.7065Z" fill="#2E2D2D"/>
<path d="M39.9251 31.6264C39.5812 31.6264 39.2874 31.8273 39.146 32.1172H40.7043C40.5637 31.8273 40.269 31.6264 39.9251 31.6264Z" fill="#2E2D2D"/>
<path d="M21.1907 44.2458C21.6382 44.2458 22.0024 43.9058 22.0508 43.4714H20.3306C20.379 43.9058 20.7431 44.2458 21.1907 44.2458Z" fill="#2E2D2D"/>
<path d="M27.4359 44.2458C27.8835 44.2458 28.248 43.9058 28.2956 43.4714H26.5762C26.6238 43.9058 26.988 44.2458 27.4359 44.2458Z" fill="#2E2D2D"/>
<path d="M52.1306 37.8368C52.1306 38.1231 52.1024 38.4019 52.0615 38.6767C52.4372 38.5802 52.716 38.2427 52.716 37.8368C52.716 37.4361 52.4439 37.1025 52.075 37.0017C52.108 37.2475 52.1306 37.4969 52.1306 37.7514V37.8368Z" fill="#2E2D2D"/>
<path d="M46.9616 32.141C46.8258 31.838 46.5232 31.6264 46.1698 31.6264C45.8263 31.6264 45.5316 31.8273 45.3906 32.1172H46.4966C46.6538 32.1172 46.8079 32.1279 46.9616 32.141Z" fill="#2E2D2D"/>
<path d="M39.9252 44.2458C40.3731 44.2458 40.7373 43.9058 40.7849 43.4714H39.0654C39.1131 43.9058 39.4776 44.2458 39.9252 44.2458Z" fill="#2E2D2D"/>
<path d="M33.6805 44.2458C34.1285 44.2458 34.4926 43.9058 34.5403 43.4714H32.8208C32.8685 43.9058 33.2326 44.2458 33.6805 44.2458Z" fill="#2E2D2D"/>
<path d="M34.5495 42.6017H32.8105V43.3761C32.8105 43.4091 32.8169 43.4396 32.8205 43.4714H34.5399C34.5431 43.4396 34.5495 43.4091 34.5495 43.3761V42.6017Z" fill="#2E2D2D"/>
<path d="M26.5664 32.9865H28.3053V32.4957C28.3053 32.3594 28.2712 32.232 28.2148 32.1172H26.6562C26.6006 32.232 26.5664 32.3594 26.5664 32.4957V32.9865Z" fill="#2E2D2D"/>
<path d="M39.0557 32.9865H40.7946V32.4957C40.7946 32.3594 40.7605 32.232 40.7041 32.1172H39.1458C39.0898 32.232 39.0557 32.3594 39.0557 32.4957V32.9865Z" fill="#2E2D2D"/>
<path d="M32.8105 32.9865H34.5495V32.4957C34.5495 32.3594 34.5153 32.232 34.4593 32.1172H32.9011C32.8447 32.232 32.8105 32.3594 32.8105 32.4957V32.9865Z" fill="#2E2D2D"/>
<path d="M20.3218 32.9865H22.0603V32.4957C22.0603 32.3594 22.0262 32.232 21.9702 32.1172H20.4119C20.3559 32.232 20.3218 32.3594 20.3218 32.4957V32.9865Z" fill="#2E2D2D"/>
<path d="M22.0603 42.6017H20.3218V43.3761C20.3218 43.4091 20.3281 43.4396 20.3309 43.4714H22.0512C22.0544 43.4396 22.0603 43.4091 22.0603 43.3761V42.6017Z" fill="#2E2D2D"/>
<path d="M14.0947 37.8368C14.0947 38.133 14.1249 38.4221 14.169 38.7065H15.0474C14.9954 38.4241 14.9644 38.1342 14.9644 37.8368V37.751C14.9644 37.4841 14.9918 37.2228 15.0347 36.9675H14.1559C14.1201 37.2244 14.0947 37.4849 14.0947 37.7514V37.8368Z" fill="#2E2D2D"/>
<path d="M40.7946 42.6017H39.0557V43.3761C39.0557 43.4091 39.0616 43.4396 39.0652 43.4714H40.7847C40.7883 43.4396 40.7946 43.4091 40.7946 43.3761V42.6017Z" fill="#2E2D2D"/>
<path d="M28.3053 42.6017H26.5664V43.3761C26.5664 43.4091 26.5724 43.4396 26.5759 43.4714H28.2954C28.299 43.4396 28.3053 43.4091 28.3053 43.3761V42.6017Z" fill="#2E2D2D"/>
<path d="M45.3003 32.9865H46.4964C46.6803 32.9865 46.8605 32.9996 47.0388 33.0194V32.4957C47.0388 32.369 47.0106 32.2494 46.9614 32.141C46.8077 32.1279 46.6536 32.1172 46.4964 32.1172H45.3904C45.3344 32.232 45.3003 32.3594 45.3003 32.4957V32.9865Z" fill="#2E2D2D"/>
<path d="M47.0388 42.5684C46.8605 42.589 46.6803 42.6017 46.4964 42.6017H45.3003V43.3761C45.3003 43.4091 45.3063 43.4396 45.3098 43.4714H46.4964C46.6771 43.4714 46.8554 43.4607 47.0325 43.444C47.0341 43.4214 47.0388 43.3995 47.0388 43.3761V42.5684Z" fill="#2E2D2D"/>
<path d="M51.1908 36.9675C51.2337 37.2228 51.2611 37.4841 51.2611 37.751V37.8368C51.2611 38.1342 51.2302 38.4241 51.1777 38.7065H51.8465C51.9211 38.7065 51.9922 38.6937 52.0613 38.6767C52.1022 38.4019 52.1304 38.1231 52.1304 37.8368V37.7514C52.1304 37.4968 52.1078 37.2475 52.0748 37.0016C52.0013 36.9818 51.9263 36.9675 51.8465 36.9675H51.1908Z" fill="#2E2D2D"/>
<path d="M10.4606 24.7524C10.4384 24.6983 10.4217 24.6427 10.4114 24.5844C9.78875 21.087 16.4645 20.1931 18.6109 20.8678C19.7129 21.2141 20.8196 21.8165 21.6988 22.5651C22.038 22.8538 24.2197 25.5819 22.6507 25.6188C22.4184 25.624 22.2075 25.4914 22.0177 25.3572C20.5854 24.3449 19.8221 22.8454 18.0153 22.413C16.0333 21.9392 13.8603 22.5813 12.4756 24.082C12.038 24.5566 10.934 25.9048 10.4606 24.7524Z" fill="#2E2D2D"/>
<path d="M54.5391 24.7524C54.5614 24.6983 54.5781 24.6427 54.588 24.5844C55.211 21.087 48.5352 20.1931 46.3889 20.8678C45.2865 21.2141 44.1801 21.8165 43.3005 22.5651C42.9618 22.8538 40.7801 25.5819 42.3491 25.6188C42.5814 25.624 42.7919 25.4914 42.9817 25.3572C44.4144 24.3449 45.1777 22.8454 46.9845 22.413C48.9665 21.9392 51.1391 22.5813 52.5242 24.082C52.9618 24.5566 54.0658 25.9048 54.5391 24.7524Z" fill="#2E2D2D"/>
</svg>
