<svg width="65" height="65" viewBox="0 0 65 65" fill="none" xmlns="http://www.w3.org/2000/svg">
<path d="M49.9777 65H15.0219C6.72558 65 0 58.2743 0 49.9777V15.0191C0 6.72327 6.72558 0 15.0219 0H49.9777C58.2741 0 65 6.72327 65 15.0191V49.9777C65 58.2743 58.2741 65 49.9777 65Z" fill="#FBBE2C"/>
<path d="M21.222 25.7414C21.222 28.3663 19.9597 30.4949 18.4023 30.4949C16.8452 30.4949 15.5825 28.3663 15.5825 25.7414C15.5825 23.1164 16.8452 20.9878 18.4023 20.9878C19.9597 20.9878 21.222 23.1164 21.222 25.7414Z" fill="#2E2D2D"/>
<path d="M49.4173 25.7414C49.4173 28.3663 48.1549 30.4949 46.5974 30.4949C45.0403 30.4949 43.7783 28.3663 43.7783 25.7414C43.7783 23.1164 45.0403 20.9878 46.5974 20.9878C48.1549 20.9878 49.4173 23.1164 49.4173 25.7414Z" fill="#2E2D2D"/>
<path d="M42.1784 36.522C44.7311 36.522 46.3862 39.2073 45.2497 41.4932C43.1065 45.8027 38.2629 48.8097 32.6307 48.8097C26.9993 48.8097 22.1551 45.8027 20.0125 41.4932C18.8758 39.2073 20.5309 36.522 23.0834 36.522H42.1784Z" fill="#2E2D2D"/>
</svg>
