<svg width="65" height="65" viewBox="0 0 65 65" fill="none" xmlns="http://www.w3.org/2000/svg">
<path d="M49.9778 65H15.0219C6.72585 65 0 58.2745 0 49.9781V15.0219C0 6.72547 6.72585 0 15.0219 0H49.9778C58.2742 0 65 6.72547 65 15.0219V49.9781C65 58.2745 58.2742 65 49.9778 65Z" fill="#F4694C"/>
<path d="M5.37549 36.3071C5.37549 34.0765 7.18392 32.2681 9.41448 32.2681C11.645 32.2681 13.4535 34.0765 13.4535 36.3071C13.4535 38.5381 11.645 40.3465 9.41448 40.3465C7.18392 40.3465 5.37549 38.5381 5.37549 36.3071Z" fill="#2E2D2D"/>
<path d="M51.5459 36.3071C51.5459 34.0765 53.3543 32.2681 55.5849 32.2681C57.8159 32.2681 59.6243 34.0765 59.6243 36.3071C59.6243 38.5381 57.8159 40.3465 55.5849 40.3465C53.3543 40.3465 51.5459 38.5381 51.5459 36.3071Z" fill="#2E2D2D"/>
<path d="M40.6042 37.396C42.7712 37.396 44.1762 39.675 43.2116 41.6157C41.3928 45.2739 37.2808 47.8261 32.4996 47.8261C27.7188 47.8261 23.6067 45.2739 21.7875 41.6157C20.8234 39.675 22.2279 37.396 24.395 37.396H40.6042Z" fill="#2E2D2D"/>
<path d="M15.8523 28.7155C15.5061 28.4296 15.1741 28.1274 14.8596 27.8081C13.5054 26.4341 11.8813 24.1718 12.5417 22.1322C13.0515 20.5561 14.9053 20.0899 16.3845 20.1903C17.1958 20.2455 17.9836 20.4818 18.7171 20.8333C18.9772 20.958 19.3044 21.1088 19.5947 21.2959C19.8707 21.4734 20.2336 21.2844 20.2495 20.9564C20.3158 19.5982 20.7991 18.1762 22.0195 17.5166C23.3502 16.7974 24.8135 17.2751 25.794 18.3394C27.3713 20.051 27.2081 22.4086 26.5564 24.4839C26.0994 25.9401 25.5148 27.3578 24.8147 28.7139C24.4319 29.4565 24.1027 30.2722 23.5447 30.906C22.5694 32.0143 21.1414 31.7364 19.9406 31.1959C18.5027 30.549 17.0873 29.7353 15.8523 28.7155Z" fill="#2E2D2D"/>
<path d="M49.1474 28.7155C49.4937 28.4296 49.8257 28.1274 50.1402 27.8081C51.4944 26.4341 53.1189 24.1718 52.4586 22.1322C51.9483 20.5561 50.0946 20.0899 48.6153 20.1903C47.804 20.2455 47.0166 20.4818 46.2827 20.8333C46.0226 20.958 45.6954 21.1088 45.4051 21.2959C45.1291 21.4734 44.7661 21.2844 44.7503 20.9564C44.6839 19.5982 44.2007 18.1762 42.9808 17.5166C41.6496 16.7974 40.1863 17.2751 39.2062 18.3394C37.6289 20.051 37.7921 22.4086 38.4438 24.4839C38.9009 25.9401 39.485 27.3578 40.1851 28.7139C40.5679 29.4565 40.8971 30.2722 41.455 30.906C42.4303 32.0143 43.8588 31.7364 45.0592 31.1959C46.4971 30.549 47.9128 29.7353 49.1474 28.7155Z" fill="#2E2D2D"/>
</svg>
