<svg width="65" height="65" viewBox="0 0 65 65" fill="none" xmlns="http://www.w3.org/2000/svg">
<path d="M50.5384 65H14.4616C6.4745 65 0 58.5259 0 50.5384V14.462C0 6.47449 6.4745 0 14.4616 0H50.5384C58.5251 0 65 6.47449 65 14.462V50.5384C65 58.5259 58.5251 65 50.5384 65Z" fill="#F57728"/>
<path d="M13.8735 21.3972C14.0009 21.6287 14.2595 21.8256 14.6677 21.9317C18.0582 22.8137 24.7273 21.6882 25.2722 17.4102C25.3615 16.7097 25.0005 15.0017 23.9939 15.8134C22.934 16.668 22.2092 17.8561 21.116 18.6924C20.043 19.5129 18.7881 19.9672 17.4292 19.9195C16.546 19.8881 15.5878 19.6931 14.7237 19.9612C13.9461 20.2026 13.5903 20.8845 13.8735 21.3972Z" fill="#2E2D2D"/>
<path d="M50.9396 21.3972C50.8118 21.6287 50.5537 21.8256 50.1454 21.9317C46.7549 22.8137 40.0858 21.6882 39.541 17.4102C39.4516 16.7097 39.8122 15.0017 40.8193 15.8134C41.8788 16.668 42.6035 17.8561 43.6971 18.6924C44.7701 19.5129 46.025 19.9672 47.3839 19.9195C48.2667 19.8881 49.2253 19.6931 50.0895 19.9612C50.8666 20.2026 51.2224 20.8845 50.9396 21.3972Z" fill="#2E2D2D"/>
<path d="M23.7136 26.5306C24.4502 26.6347 25.1118 27.0214 25.7516 27.4003C26.5883 27.8955 27.4572 28.4221 27.9662 29.2496C28.2009 29.6309 28.3359 30.1558 28.0544 30.5037C27.8654 30.7368 27.5461 30.8151 27.2475 30.8441C25.2012 31.039 23.1926 29.5769 21.1903 30.0427C20.3286 30.2432 15.8198 32.4992 17.1338 29.8711C18.0531 28.0333 21.7943 26.2594 23.7136 26.5306Z" fill="#2E2D2D"/>
<path d="M41.099 26.5306C40.3627 26.6347 39.7012 27.0214 39.0614 27.4003C38.2247 27.8955 37.3558 28.4221 36.8463 29.2496C36.612 29.6309 36.4766 30.1558 36.7582 30.5037C36.9472 30.7368 37.2669 30.8151 37.5655 30.8441C39.6122 31.039 41.6204 29.5769 43.6227 30.0427C44.4844 30.2432 48.9936 32.4992 47.6791 29.8711C46.7602 28.0333 43.0186 26.2594 41.099 26.5306Z" fill="#2E2D2D"/>
<path d="M22.3496 46.2655C22.1586 42.259 25.7437 39.3529 28.668 37.2332C29.99 36.2749 31.3624 35.0181 33.0553 34.7746C34.9638 34.5006 36.5225 35.8877 37.7063 37.2073C38.9266 38.5682 40.0441 40.0217 41.0361 41.5565C42.0777 43.1692 42.9942 45.2266 42.1214 46.9362C41.4455 48.259 39.8642 48.9027 38.3794 48.9352C36.8942 48.9682 35.4495 48.508 34.0048 48.1609C32.9036 47.8964 31.7198 47.7487 30.5738 47.8916C29.9908 47.9643 29.4182 48.1116 28.8757 48.338C28.3182 48.5711 27.8293 48.9174 27.2611 49.1271C26.2818 49.4884 25.1262 49.5087 24.1477 49.0909C23.1518 48.6664 22.518 47.7721 22.3869 46.7023C22.3687 46.5558 22.356 46.41 22.3496 46.2655Z" fill="#2E2D2D"/>
<path d="M49.703 36.7634C49.8511 37.6815 50.2673 38.7335 51.0313 39.3109C51.7219 39.8319 52.7004 39.7076 53.2885 39.0909C54.1824 38.1541 53.8357 36.6522 53.4172 35.5828C52.9101 34.2862 51.9729 32.9765 50.6604 32.4075C50.0203 32.1303 49.3111 32.0731 48.6415 32.2784C48.0522 32.4583 48.385 33.0142 48.6018 33.3705C48.9858 34.0015 49.2836 34.6964 49.4647 35.4132C49.5759 35.8548 49.6299 36.3119 49.703 36.7634Z" fill="white"/>
<path d="M15.2977 36.7634C15.1496 37.6815 14.733 38.7335 13.969 39.3109C13.2784 39.8319 12.3003 39.7076 11.7122 39.0909C10.8183 38.1541 11.165 36.6522 11.5831 35.5828C12.0903 34.2862 13.027 32.9765 14.3399 32.4075C14.98 32.1303 15.6889 32.0731 16.3592 32.2784C16.9481 32.4583 16.6149 33.0142 16.3985 33.3705C16.0149 34.0015 15.7171 34.6964 15.536 35.4132C15.424 35.8548 15.3708 36.3119 15.2977 36.7634Z" fill="white"/>
</svg>
