<svg width="65" height="65" viewBox="0 0 65 65" fill="none" xmlns="http://www.w3.org/2000/svg">
<path d="M50.5385 65H14.4615C6.47486 65 0 58.5251 0 50.5385V14.4615C0 6.47486 6.47486 0 14.4615 0H50.5385C58.5251 0 65 6.47486 65 14.4615V50.5385C65 58.5251 58.5251 65 50.5385 65Z" fill="#F57728"/>
<path d="M21.7027 30.523C21.7027 32.7631 20.5213 34.5791 19.0643 34.5791C17.6077 34.5791 16.4263 32.7631 16.4263 30.523C16.4263 28.2829 17.6077 26.4673 19.0643 26.4673C20.5213 26.4673 21.7027 28.2829 21.7027 30.523Z" fill="#2E2D2D"/>
<path d="M48.0816 30.523C48.0816 32.7631 46.9007 34.5791 45.4437 34.5791C43.9871 34.5791 42.8057 32.7631 42.8057 30.523C42.8057 28.2829 43.9871 26.4673 45.4437 26.4673C46.9007 26.4673 48.0816 28.2829 48.0816 30.523Z" fill="#2E2D2D"/>
<path d="M41.6148 47.9593C43.8763 47.9593 45.4306 45.8208 44.4772 43.95C42.5393 40.1481 37.9284 37.4732 32.5484 37.4732C27.1688 37.4732 22.5579 40.1481 20.62 43.95C19.667 45.8208 21.2209 47.9593 23.482 47.9593H41.6148Z" fill="#2E2D2D"/>
<path d="M6.97714 24.3241C7.15306 24.6152 7.50847 24.8626 8.07078 24.9964C12.7404 26.1044 21.9247 24.6903 22.6753 19.3162C22.798 18.4358 22.3008 16.2906 20.9145 17.3104C19.4551 18.3842 18.4572 19.8761 16.9513 20.9273C15.4737 21.9578 13.7451 22.5288 11.8743 22.4684C10.6575 22.4291 9.33835 22.1841 8.14781 22.5208C7.07721 22.8242 6.58757 23.6804 6.97714 24.3241Z" fill="#2E2D2D"/>
<path d="M58.0223 24.3241C57.8464 24.6152 57.491 24.8626 56.9287 24.9964C52.2595 26.1044 43.0751 24.6903 42.3246 19.3162C42.2019 18.4358 42.6991 16.2906 44.085 17.3104C45.5443 18.3842 46.5423 19.8761 48.0481 20.9273C49.5258 21.9578 51.2544 22.5288 53.1256 22.4684C54.3419 22.4291 55.6611 22.1841 56.8516 22.5208C57.9226 22.8242 58.4123 23.6804 58.0223 24.3241Z" fill="#2E2D2D"/>
</svg>
