<svg width="65" height="65" viewBox="0 0 65 65" fill="none" xmlns="http://www.w3.org/2000/svg">
<path d="M49.9781 65H15.0223C6.72548 65 0 58.2742 0 49.9778V15.0222C0 6.72584 6.72548 0 15.0223 0H49.9781C58.2745 0 65 6.72584 65 15.0222V49.9778C65 58.2742 58.2745 65 49.9781 65Z" fill="#FBBE2C"/>
<path d="M17.8862 24.9158C17.833 23.08 19.2781 21.5487 21.1139 21.4959C22.9497 21.4427 24.481 22.8882 24.5338 24.7236C24.587 26.5594 23.1415 28.0907 21.3061 28.1435C19.4703 28.1967 17.939 26.7516 17.8862 24.9158Z" fill="#2E2D2D"/>
<path d="M41.1591 24.2435C41.1063 22.4081 42.5514 20.8768 44.3872 20.8236C46.2231 20.7708 47.754 22.2158 47.8072 24.0517C47.86 25.8875 46.4149 27.4184 44.579 27.4716C42.7432 27.5244 41.2123 26.0793 41.1591 24.2435Z" fill="#2E2D2D"/>
<path d="M37.0984 34.512C37.5606 34.1756 38.0304 33.8929 38.5062 33.6947C40.7399 32.7639 41.9039 35.2339 42.8839 36.3859C43.6047 37.2338 44.3028 38.3016 43.8755 39.5513C43.0666 41.9189 39.8496 43.9489 37.9649 45.5981C36.0548 47.2699 34.1645 48.9648 32.2965 50.6822C30.9102 51.9562 29.3591 53.7726 27.4696 53.7729C26.6627 53.7729 26.1242 53.2079 25.6648 52.6674C24.8614 51.7211 24.0839 50.7525 23.3325 49.761C22.5967 48.7888 22.7853 47.6718 23.7554 46.4387C24.3912 45.6302 25.218 44.9687 26.0269 44.3122C28.3413 42.4331 30.6092 40.4944 32.8255 38.5009C34.1002 37.3549 35.554 35.6358 37.0984 34.512Z" fill="#2E2D2D"/>
<path d="M29.8227 34.5171C29.3609 34.1807 28.8907 33.8976 28.415 33.6994C26.1816 32.7678 25.0173 35.2374 24.0368 36.3894C23.3153 37.2365 22.6175 38.3043 23.0444 39.5544C23.8529 41.922 27.0688 43.9528 28.953 45.6028C30.8628 47.275 32.7522 48.9706 34.6202 50.6885C36.0058 51.9629 37.5565 53.7796 39.4459 53.7808C40.2529 53.7808 40.7917 53.2161 41.2508 52.6757C42.055 51.7294 42.8325 50.7612 43.5838 49.77C44.3205 48.7979 44.1322 47.6808 43.1625 46.4478C42.5263 45.6393 41.6999 44.9773 40.8914 44.3205C38.5779 42.4406 36.3103 40.5015 34.0945 38.5076C32.8201 37.3608 31.3667 35.6413 29.8227 34.5171Z" fill="#2E2D2D"/>
<path d="M24.8569 19.8189C25.0944 19.9325 25.3756 19.8443 25.5106 19.612C25.872 18.9905 26.1106 18.2912 26.2043 17.5709C26.304 16.8037 17.1291 14.3253 16.1872 14.0862C13.9276 13.5128 11.4497 12.8802 9.01815 12.5836C8.39746 12.5081 8.20327 13.4274 8.79894 13.6248C11.0275 14.3638 13.3423 14.9623 15.5026 15.791C18.6688 17.0066 21.7908 18.35 24.8569 19.8189Z" fill="#2E2D2D"/>
<path d="M40.5553 19.3654C40.325 19.4929 40.039 19.421 39.8909 19.197C39.4942 18.597 39.2154 17.9132 39.0808 17.1992C38.9367 16.4387 47.9527 13.435 48.8795 13.1419C51.1026 12.4394 53.5404 11.6646 55.9505 11.2286C56.5656 11.117 56.8126 12.024 56.2292 12.2556C54.0467 13.1216 51.7705 13.8527 49.6618 14.805C46.5707 16.2008 43.532 17.7226 40.5553 19.3654Z" fill="#2E2D2D"/>
</svg>
