<svg width="65" height="65" viewBox="0 0 65 65" fill="none" xmlns="http://www.w3.org/2000/svg">
<path d="M50.5384 65H14.4615C6.47429 65 0 58.5251 0 50.5385V14.4615C0 6.47486 6.47429 0 14.4615 0H50.5384C58.5251 0 65 6.47486 65 14.4615V50.5385C65 58.5251 58.5251 65 50.5384 65Z" fill="#F79039"/>
<path d="M16.0669 27.8926C16.0669 25.876 17.7014 24.2415 19.718 24.2415C21.7343 24.2415 23.3692 25.876 23.3692 27.8926C23.3692 29.9091 21.7343 31.544 19.718 31.544C17.7014 31.544 16.0669 29.9091 16.0669 27.8926Z" fill="#2E2D2D"/>
<path d="M41.6304 27.8926C41.6304 25.876 43.2653 24.2415 45.2818 24.2415C47.2983 24.2415 48.9328 25.876 48.9328 27.8926C48.9328 29.9091 47.2983 31.544 45.2818 31.544C43.2653 31.544 41.6304 29.9091 41.6304 27.8926Z" fill="#2E2D2D"/>
<path d="M53.1028 40.7589H11.8968C11.4167 40.7589 11.0273 40.3693 11.0273 39.8892C11.0273 39.4091 11.4167 39.0199 11.8968 39.0199H53.1028C53.5829 39.0199 53.9716 39.4091 53.9716 39.8892C53.9716 40.3693 53.5829 40.7589 53.1028 40.7589Z" fill="#2E2D2D"/>
</svg>
