<svg width="65" height="65" viewBox="0 0 65 65" fill="none" xmlns="http://www.w3.org/2000/svg">
<path d="M49.9778 65H15.0218C6.72583 65 0 58.2743 0 49.9777V15.0191C0 6.72327 6.72583 0 15.0218 0H49.9778C58.2742 0 65 6.72327 65 15.0191V49.9777C65 58.2743 58.2742 65 49.9778 65Z" fill="#F57728"/>
<path d="M22.4756 21.2976C22.644 21.2618 22.8501 21.238 22.9585 21.3731C23.0117 21.4406 23.026 21.5279 23.0308 21.6153C23.0618 22.2268 22.6647 22.7947 22.1683 23.1561C21.2748 23.8074 20.1069 23.9186 19.0017 23.9583C17.7568 24.002 16.4356 23.9623 15.3841 23.2951C14.954 23.0211 14.5672 22.6121 14.5037 22.1077C14.4219 21.4564 14.9739 20.9322 15.6009 21.1109C16.1882 21.2777 16.6667 21.6629 17.2839 21.8059C19.028 22.207 20.7744 21.651 22.4756 21.2976Z" fill="#2E2D2D"/>
<path d="M42.5238 21.2976C42.3554 21.2618 42.1497 21.238 42.0409 21.3731C41.9873 21.4406 41.973 21.5279 41.969 21.6153C41.9377 22.2268 42.3348 22.7947 42.8311 23.1561C43.7246 23.8074 44.8925 23.9186 45.9981 23.9583C47.2426 24.002 48.5638 23.9623 49.6154 23.2951C50.0454 23.0211 50.4322 22.6121 50.4957 22.1077C50.5775 21.4564 50.0256 20.9322 49.3989 21.1109C48.8112 21.2777 48.3327 21.6629 47.7156 21.8059C45.9719 22.207 44.225 21.651 42.5238 21.2976Z" fill="#2E2D2D"/>
<path d="M32.9637 27.6992C34.4529 27.7231 35.9234 28.2076 37.1334 29.248C39.0185 30.8722 39.8627 33.7434 39.8262 36.1603C39.7912 38.46 39.0622 40.8443 37.2553 42.3673C34.3052 44.8533 30.1328 44.1968 27.4904 41.5476C22.6564 36.7012 25.8186 27.596 32.9637 27.6992Z" fill="#2E2D2D"/>
<path d="M47.858 12.1203C48.3834 11.5246 49.0179 10.9369 49.7188 10.5517C49.9905 10.4008 50.3177 10.3055 50.6278 10.373C50.9416 10.4405 50.9793 10.7462 51.0218 11.0163C51.1238 11.6636 51.1985 12.3189 51.2894 12.9662C51.3315 13.268 51.3831 13.5658 51.4367 13.8636C51.5221 14.3362 51.5872 15.2853 52.3314 15.0351C52.4887 14.9795 52.6229 14.8763 52.7436 14.7651C52.9688 14.5507 53.1749 14.2846 53.4715 14.1694C54.0581 13.9431 54.4234 14.5427 54.1589 15.0351C54.041 15.2575 53.8631 15.4442 53.6868 15.6189C53.3448 15.9604 53.0025 16.302 52.657 16.6395C52.358 16.9334 52.0872 17.2829 51.6972 17.4616C51.3557 17.6125 51.0102 17.4536 50.8391 17.1319C50.7128 16.8976 50.6731 16.6157 50.6381 16.3536C50.5933 16.016 50.5472 15.6785 50.502 15.3409C50.4003 14.5864 50.2978 13.8279 50.1962 13.0734C50.1656 12.8431 50.1612 12.5253 50.002 12.3466C49.8447 12.1679 49.5842 12.1163 49.3642 12.1957C49.1526 12.2712 48.9874 12.4419 48.8667 12.6326C48.5724 13.0893 48.4521 13.7008 47.9557 14.0066C47.6694 14.1814 47.2854 14.1297 47.0983 13.8358C46.8402 13.4308 47.1829 12.982 47.4208 12.6604C47.5598 12.4777 47.7051 12.295 47.858 12.1203Z" fill="#2E2D2D"/>
<path d="M52.5461 8.62954C52.9773 8.14108 53.4984 7.66054 54.0738 7.34285C54.2965 7.21974 54.565 7.14035 54.8195 7.19594C55.0773 7.25154 55.1082 7.50172 55.1432 7.72411C55.227 8.25625 55.2881 8.79235 55.3628 9.3245C55.3973 9.57071 55.4398 9.81693 55.4839 10.0592C55.5542 10.4483 55.607 11.2267 56.2177 11.0202C56.3472 10.9765 56.4572 10.8931 56.5565 10.7978C56.7415 10.627 56.9107 10.4047 57.1541 10.3093C57.6354 10.1227 57.9353 10.6191 57.718 11.0242C57.6215 11.2029 57.475 11.3578 57.3309 11.5047C57.0497 11.7827 56.7689 12.0607 56.485 12.3387C56.24 12.5809 56.018 12.8668 55.6971 13.0138C55.4172 13.1408 55.1336 13.0058 54.9931 12.7437C54.8894 12.5491 54.8569 12.3188 54.8279 12.1043C54.7917 11.8264 54.7536 11.5484 54.7163 11.2743C54.6329 10.6509 54.5487 10.0314 54.4653 9.41187C54.4403 9.22522 54.4367 8.96312 54.3061 8.81619C54.1766 8.66925 53.9634 8.62555 53.7827 8.69306C53.6091 8.75263 53.4729 8.89559 53.3736 9.05047C53.1326 9.42773 53.0337 9.92812 52.6263 10.1783C52.3916 10.3213 52.0763 10.2816 51.9226 10.0393C51.7109 9.70573 51.9917 9.33642 52.1875 9.07432C52.3011 8.92341 52.421 8.7725 52.5461 8.62954Z" fill="#2E2D2D"/>
<path d="M56.9742 5.26199C57.3384 4.84501 57.778 4.43993 58.264 4.17386C58.4519 4.07061 58.679 4.00309 58.8938 4.04678C59.1115 4.09443 59.1373 4.30891 59.1667 4.49555C59.2377 4.9443 59.2894 5.39702 59.3521 5.84577C59.3815 6.05624 59.4172 6.26271 59.4546 6.46921C59.5137 6.79485 59.559 7.45409 60.074 7.27936C60.1832 7.24362 60.2762 7.16816 60.36 7.0927C60.5164 6.94577 60.659 6.75914 60.8647 6.67972C61.2709 6.52087 61.5243 6.93783 61.3408 7.27936C61.259 7.43423 61.1355 7.56529 61.014 7.68443C60.7765 7.9227 60.5395 8.15699 60.3 8.3913C60.0927 8.59383 59.9053 8.84004 59.6349 8.95917C59.3982 9.06639 59.1591 8.95519 59.04 8.7328C58.9526 8.56999 58.9252 8.37541 58.9006 8.19274C58.87 7.95843 58.8378 7.72412 58.8065 7.48982C58.7358 6.96562 58.6651 6.44539 58.5948 5.9212C58.5734 5.76235 58.5702 5.53995 58.4602 5.41684C58.351 5.29374 58.1703 5.25801 58.0182 5.31361C57.8717 5.36523 57.7565 5.48435 57.6731 5.6154C57.4694 5.9331 57.3856 6.35406 57.0417 6.56454C56.8436 6.68765 56.5775 6.65189 56.4476 6.44936C56.2686 6.1674 56.506 5.85368 56.6712 5.63526C56.7673 5.50421 56.8682 5.38113 56.9742 5.26199Z" fill="#2E2D2D"/>
</svg>
